#!OML:ASF F:\VICON\USERDATA\INSTALL\rory3\rory3.ASF
:FULLY-SPECIFIED
:DEGREES
838
root 5.25779 16.9569 1.88231 7.37799 -14.9574 -7.23926
lowerback 21.2695 -0.660517 4.50405
upperback 4.95128 0.149311 1.24466
thorax -6.46806 -0.0101416 -1.2603
lowerneck -14.3186 -0.512927 -1.81824
upperneck 37.492 0.389239 -2.11582
head 15.6289 -0.46715 -0.536018
rclavicle 3.97569e-015 -5.1684e-015
rhumerus -34.6795 -8.38677 -17.2103
rradius 35.1804
rwrist 3.91138
rhand -18.8688 -47.0453
rfingers 7.12502
rthumb 7.43182 -76.8947
lclavicle 3.97569e-015 -5.1684e-015
lhumerus -35.808 8.82791 12.4765
lradius 28.1916
lwrist 15.9221
lhand -23.7268 -27.4807
lfingers 7.12502
lthumb 2.74116 2.48145
rfemur -99.8513 0.538548 27.8732
rtibia 95.0507
rfoot 48.6171 2.21117
rtoes -3.98743
lfemur -28.5981 5.38971 -23.7807
ltibia 41.3951
lfoot -17.2858 10.7326
ltoes 13.8657
839
root 5.25854 16.9595 1.88244 7.34285 -15.0115 -7.2517
lowerback 21.3356 -0.655587 4.48212
upperback 4.94862 0.155195 1.25167
thorax -6.50543 -0.00788653 -1.24168
lowerneck -14.3297 -0.491268 -1.76716
upperneck 37.5453 0.437311 -2.19829
head 15.659 -0.452322 -0.57327
rclavicle 3.97569e-016 -2.5842e-014
rhumerus -34.6216 -8.46519 -17.1901
rradius 35.0515
rwrist 4.14116
rhand -18.9952 -46.6913
rfingers 7.12502
rthumb 7.30975 -76.545
lclavicle 3.97569e-016 -2.5842e-014
lhumerus -35.8242 8.67004 12.5413
lradius 28.2136
lwrist 16.0496
lhand -23.8814 -27.9245
lfingers 7.12502
lthumb 2.59186 2.03954
rfemur -99.7965 0.566868 27.8911
rtibia 95.0214
rfoot 48.6366 2.14763
rtoes -4.14909
lfemur -28.5406 5.49637 -23.7788
ltibia 41.4243
lfoot -17.3165 10.7217
ltoes 13.6631
840
root 5.25877 16.9608 1.87897 7.35543 -15.0495 -7.31309
lowerback 21.4124 -0.657244 4.50918
upperback 4.98798 0.161583 1.25843
thorax -6.5021 -0.00498224 -1.25144
lowerneck -14.5499 -0.471458 -1.71602
upperneck 37.62 0.473175 -2.23339
head 15.7502 -0.436861 -0.593829
rclavicle 3.4191e-014 -1.23246e-014
rhumerus -34.5617 -8.6543 -17.2167
rradius 35.0158
rwrist 4.29803
rhand -18.9821 -46.572
rfingers 7.12502
rthumb 7.32241 -76.4253
lclavicle 3.4191e-014 -1.23246e-014
lhumerus -35.8624 8.59588 12.6125
lradius 28.2741
lwrist 16.1272
lhand -23.2874 -29.3758
lfingers 7.12502
lthumb 3.16554 0.580406
rfemur -99.7713 0.627589 27.9566
rtibia 94.9816
rfoot 48.6613 2.12676
rtoes -4.15545
lfemur -28.5915 5.63585 -23.7207
ltibia 41.4631
lfoot -17.3237 10.6487
ltoes 13.5778
841
root 5.25678 16.9588 1.8731 7.42103 -15.0389 -7.42699
lowerback 21.4003 -0.689693 4.58903
upperback 5.1452 0.127956 1.25699
thorax -6.32552 -0.0176084 -1.29
lowerneck -15.0794 -0.454396 -1.68156
upperneck 37.6368 0.4875 -2.18017
head 15.8868 -0.420585 -0.577727
rclavicle 7.35503e-015 -3.77691e-014
rhumerus -34.4136 -9.03017 -17.3393
rradius 35.0414
rwrist 4.6379
rhand -18.7799 -46.2477
rfingers 7.12502
rthumb 7.51761 -76.0941
lclavicle 7.35503e-015 -3.77691e-014
lhumerus -35.8252 8.8471 12.6053
lradius 28.2042
lwrist 16.0559
lhand -22.9708 -30.4956
lfingers 7.12502
lthumb 3.47127 -0.544164
rfemur -99.8111 0.690127 28.0644
rtibia 94.9789
rfoot 48.6835 2.00947
rtoes -4.04384
lfemur -28.7046 5.77613 -23.601
ltibia 41.4933
lfoot -17.2228 10.5369
ltoes 13.2911
842
root 5.25624 16.9596 1.87203 7.45514 -14.9975 -7.45768
lowerback 21.2863 -0.706363 4.66146
upperback 5.0957 0.118247 1.26227
thorax -6.32 -0.0232972 -1.32297
lowerneck -14.6552 -0.456654 -1.7154
upperneck 37.5064 0.491333 -2.21541
head 15.7184 -0.425521 -0.581736
rclavicle 3.20043e-014 1.03368e-014
rhumerus -34.5158 -8.85789 -17.3189
rradius 35.2333
rwrist 5.1084
rhand -17.9056 -46.3642
rfingers 7.12502
rthumb 8.36142 -76.1787
lclavicle 3.20043e-014 1.03368e-014
lhumerus -35.8348 8.61422 12.684
lradius 28.2185
lwrist 16.0419
lhand -23.6595 -30.7245
lfingers 7.12502
lthumb 2.80623 -0.763228
rfemur -99.8613 0.654297 28.0941
rtibia 95.0344
rfoot 48.5902 1.84325
rtoes -4.33696
lfemur -28.7785 5.7981 -23.5573
ltibia 41.5184
lfoot -17.1365 10.4535
ltoes 13.1949
843
root 5.25725 16.9602 1.87483 7.42208 -14.9616 -7.32832
lowerback 21.1873 -0.731127 4.58267
upperback 5.13883 0.0591208 1.22752
thorax -6.22506 -0.0484684 -1.30067
lowerneck -14.6599 -0.441704 -1.70737
upperneck 37.4823 0.530217 -2.26577
head 15.7082 -0.414963 -0.59774
rclavicle -6.55989e-015 -7.95139e-015
rhumerus -34.459 -8.8261 -17.3764
rradius 35.1363
rwrist 4.51522
rhand -18.9279 -46.2048
rfingers 7.12502
rthumb 7.3747 -76.0563
lclavicle -6.55989e-015 -7.95139e-015
lhumerus -35.8604 8.70388 12.6769
lradius 28.2495
lwrist 15.8804
lhand -24.1824 -30.7058
lfingers 7.12502
lthumb 2.30119 -0.73848
rfemur -99.9214 0.530492 27.9776
rtibia 95.1281
rfoot 48.5204 1.50689
rtoes -4.27999
lfemur -28.7668 5.81623 -23.7003
ltibia 41.5212
lfoot -17.1927 10.3775
ltoes 13.4581
844
root 5.25616 16.9572 1.87244 7.3517 -14.9862 -7.22115
lowerback 21.2685 -0.718624 4.45522
upperback 5.16835 0.0495616 1.20266
thorax -6.23656 -0.0516668 -1.25248
lowerneck -14.8305 -0.456944 -1.76433
upperneck 37.5402 0.494571 -2.16671
head 15.7777 -0.425653 -0.553075
rclavicle 2.84262e-014 -4.53229e-014
rhumerus -34.4464 -8.87006 -17.3956
rradius 35.1852
rwrist 4.28241
rhand -19.1547 -46.3206
rfingers 7.12502
rthumb 7.15586 -76.1796
lclavicle 2.84262e-014 -4.53229e-014
lhumerus -35.8492 8.83192 12.6359
lradius 28.2262
lwrist 15.725
lhand -24.1261 -30.6294
lfingers 7.12502
lthumb 2.35554 -0.662623
rfemur -99.927 0.505134 27.8722
rtibia 95.1607
rfoot 48.525 1.07025
rtoes -3.72431
lfemur -28.707 5.90691 -23.8127
ltibia 41.4901
lfoot -17.2032 10.3119
ltoes 13.5174
845
root 5.25441 16.9573 1.86792 7.30272 -15.0131 -7.2358
lowerback 21.3923 -0.707179 4.40813
upperback 5.18566 0.0607138 1.20879
thorax -6.28198 -0.0466315 -1.22175
lowerneck -14.9837 -0.45377 -1.74265
upperneck 37.6172 0.489469 -2.14317
head 15.8535 -0.423149 -0.549799
rclavicle 4.77083e-014 -8.74653e-015
rhumerus -34.4934 -8.7859 -17.4531
rradius 35.3329
rwrist 4.17343
rhand -19.2586 -46.3784
rfingers 7.12502
rthumb 7.05554 -76.2408
lclavicle 4.77083e-014 -8.74653e-015
lhumerus -35.8557 8.81329 12.6426
lradius 28.2362
lwrist 15.7684
lhand -24.2021 -30.5483
lfingers 7.12502
lthumb 2.2822 -0.580712
rfemur -99.8588 0.540066 27.8688
rtibia 95.1413
rfoot 48.4143 1.30051
rtoes -3.78884
lfemur -28.6447 5.9679 -23.7705
ltibia 41.436
lfoot -17.1116 10.2332
ltoes 13.5235
846
root 5.25427 16.9597 1.86877 7.2848 -14.9973 -7.19059
lowerback 21.3869 -0.710887 4.37443
upperback 5.1865 0.0478614 1.20095
thorax -6.27914 -0.0523309 -1.2077
lowerneck -15.0355 -0.448861 -1.74366
upperneck 37.6651 0.498479 -2.14029
head 15.8905 -0.420034 -0.547874
rclavicle 7.0171e-014 -3.26007e-014
rhumerus -34.5566 -8.64968 -17.47
rradius 35.4366
rwrist 3.98939
rhand -19.3502 -46.6255
rfingers 7.12502
rthumb 6.96708 -76.4909
lclavicle 7.0171e-014 -3.26007e-014
lhumerus -35.9129 8.62924 12.753
lradius 28.016
lwrist 15.5057
lhand -24.5579 -32.0771
lfingers 7.12502
lthumb 1.93852 -2.10618
rfemur -99.8617 0.481863 27.8096
rtibia 95.1814
rfoot 48.3048 1.47585
rtoes -3.91253
lfemur -28.5821 5.95971 -23.8074
ltibia 41.3697
lfoot -17.11 10.1381
ltoes 13.5646
